<svg version="1.2" xmlns="http://www.w3.org/2000/svg" viewBox="0 0 600 600" width="600" height="600">
	<title>logo_svg-svg</title>
	<style>
		.s0 { fill: #ffffff } 
		.s1 { fill: #020202 } 
	</style>
	<g id="Background">
		<path id="Path 1" class="s0" d="m177.9 97.8c-1.9 0.4-5.5 2-7.8 3.7-2.4 1.7-5.5 5-7 7.5-2.6 4.5-2.6 4.6-2.7 26.5 0 12.1-0.4 24.7-0.9 28-0.4 3.3-1.6 8.5-2.7 11.5-1 3-3.6 8.6-5.6 12.4-2 3.8-5.3 8.8-7.2 11-2 2.3-6.5 8.2-10.1 13.1-3.6 4.9-9.5 14.6-13.2 21.5-3.6 6.9-7.3 15-8.1 18-0.9 3-2.7 9.6-4.1 14.5-1.3 4.9-3 13.3-3.6 18.5-0.8 6-1 15.7-0.6 26 0.5 12.5 1.2 18.9 3.1 26.5 1.3 5.5 3.7 14.1 5.4 19 1.6 4.9 5.8 14.6 9.2 21.5 3.4 6.9 9.8 17.7 14.1 24 4.3 6.3 11.2 15.8 15.3 21 5 6.3 8.6 12.1 10.6 17 1.7 4.1 4 12.2 5.1 18 1.5 7.9 1.8 12.5 1.3 18.5-0.5 6.6-0.3 8.6 1.1 11.5 1 1.9 3.2 5.2 4.9 7.3 1.7 2.1 4.7 4.5 6.6 5.4 2.7 1.2 5.1 1.4 10.2 0.9 4.3-0.4 9.3-1.7 13.5-3.7 3.8-1.7 9.9-5.1 13.8-7.7 3.8-2.6 10.8-8.5 15.4-13.2 4.6-4.7 10.7-11.9 13.4-16 2.8-4.1 5.2-7.7 5.4-8 0.2-0.3 4 0.7 8.6 2.3 4.5 1.5 13.6 3.6 20.2 4.7 6.6 1.1 15.4 2.3 19.5 2.6 5.2 0.4 12.9-0.2 25.5-2 9.9-1.4 20.7-3.4 24-4.6 3.3-1.1 6.6-2 7.2-2 0.7 0 3 2.4 5 5.3 2.1 2.8 6.2 8.3 9.3 12.1 3 3.8 9.1 9.9 13.5 13.7 5.4 4.5 11.3 8.3 18 11.5 9.5 4.5 10.5 4.8 18.7 4.8l8.8 0.1 11.5-11.5c1-27.7 1.8-35.7 2.9-40 1-3.6 3.3-9.6 5.2-13.5 1.9-3.9 8.5-13.4 14.7-21.2 6.2-7.8 12.9-16.8 14.9-20 2-3.2 5.7-9.9 8.3-14.8 2.5-4.9 6.2-12.8 8.2-17.5 2-4.7 4-9.9 4.5-11.5 0.4-1.6 2.2-8.2 3.8-14.5 2.5-9.3 3.2-14.3 3.7-26 0.3-9.1 0.1-17.9-0.6-23.5-0.7-4.9-1.9-11.5-2.7-14.5-0.9-3-2.6-8.6-3.9-12.5-1.3-3.9-5.4-12.8-9.1-20-3.6-7.2-7.2-13.7-7.8-14.5-0.7-0.8-3.6-5.6-6.6-10.5-2.9-4.9-6.7-11.2-8.5-14-1.8-2.7-5.7-9.9-8.8-16-3.7-7.5-6.4-14.5-8.2-22-2.3-9.4-2.6-12.3-2.1-19.5 0.3-4.7 0.9-13.2 1.2-19l0.6-10.5c-5.7-8.5-8.4-10.9-12.2-13-4.9-2.6-6.4-2.9-13.5-2.8-6.6 0.1-10 0.9-19.5 4.3-6.3 2.2-16.7 6.8-23 10.2-6.3 3.3-14.6 8.2-18.5 10.8-3.9 2.6-10.8 7.2-15.5 10.2-4.7 3-11.9 6.9-16 8.6-4.1 1.6-9.9 3.5-12.8 4.1-2.8 0.6-9.1 1.1-14 1.1-4.8 0-11.3-0.7-14.5-1.5-3.1-0.8-9.6-3-14.5-4.9-4.8-1.8-13.6-6.1-19.7-9.6-6.1-3.4-13.3-7.7-16-9.4-2.8-1.8-9.3-5.7-14.5-8.8-5.2-3.1-11.3-6.5-13.5-7.6-2.2-1.1-7.2-3.2-11-4.7-4.5-1.7-9.6-2.7-14.5-3-4.1-0.2-9.1-0.1-11.1 0.3z"/>
		<path id="Path 2" class="s1" d="m177 106.3c-1.9 0.7-4.2 2.4-5.1 3.7-0.9 1.4-2.1 4.1-2.7 6-0.7 2.2-1.1 11.9-0.9 25.5 0.1 19.8-0.1 22.8-2 30-1.2 4.4-3.4 10.7-4.9 14-1.4 3.3-4 8-5.7 10.5-1.7 2.5-6.3 8.6-10.2 13.5-3.9 4.9-9.4 12.8-12.2 17.5-2.8 4.7-6.7 12.1-8.6 16.5-1.9 4.4-4.6 11.4-6 15.5-1.4 4.1-3.5 12.7-4.6 19-1.5 7.9-2.1 15.7-2.1 25 0 9.1 0.6 17.2 2 24.8 1.1 6.1 3.4 15.6 5.1 21 1.7 5.3 5.7 15.1 8.9 21.7 3.2 6.6 8 15.6 10.7 20 2.7 4.4 7.3 11.1 10.3 15 3 3.9 7.5 9.7 10.1 13 2.5 3.3 6 8.5 7.7 11.5 1.7 3 4 8.6 5.2 12.5 1.1 3.9 2.8 11.3 3.6 16.5 1 5.9 1.3 12.1 1 16.3-0.4 4.1-0.2 7.6 0.5 9 0.6 1.2 2.5 3.7 4.3 5.5 2.3 2.4 4 3.2 6.6 3.2 1.9 0 6.2-0.9 9.5-2 3.3-1.1 9.2-3.9 13-6.2 3.8-2.3 10.5-7.6 14.9-11.8 4.3-4.1 10-10.4 12.7-14 2.7-3.6 6.2-9.1 7.9-12.2l3-5.8c7.4 3.2 14.4 5.4 20.5 7 6.1 1.6 16.4 3.6 23 4.6 11.7 1.6 12.4 1.6 29-0.5 9.4-1.2 20.6-3.2 25-4.5 4.4-1.3 9.9-2.6 12.2-3 3.9-0.5 4.5-0.4 6 2.2 1 1.5 4.5 6.5 7.9 11.2 3.4 4.7 9.7 11.9 14 16 4.4 4.2 10.6 9.2 13.9 11.2 3.3 2 8.8 4.6 12.2 5.7 3.5 1.2 8.2 2.1 10.5 2.1 3.8 0.1 4.8-0.4 8-4l3.8-4c-0.3-20.5 0.3-26.2 1.9-34 1.4-6.6 3.7-13.5 6.1-18.5 2.1-4.4 6.9-11.7 10.7-16.3 3.7-4.6 9.8-12.5 13.5-17.5 3.7-5.1 9.9-15.3 13.7-22.7 3.8-7.4 8.5-17.9 10.5-23.2 2-5.4 4.8-14.4 6.2-20 1.9-7.7 2.7-14 3.1-24.8 0.4-11.1 0.1-16.7-1.1-24-0.9-5.2-3.1-13.6-4.7-18.5-1.7-4.9-5.4-13.7-8.3-19.5-2.9-5.8-9.3-17-14.1-25-4.9-8-11.2-18.8-14.2-24-2.9-5.2-7.1-13.6-9.2-18.5-2.2-4.9-4.7-12.8-5.7-17.5-1.2-6.4-1.5-11.1-1.1-19 0.4-5.8 0.9-13.9 1.2-18 0.5-6.3 0.3-8.1-1.3-11-1.1-1.9-3.7-4.4-5.8-5.5-2.8-1.5-5.5-1.9-9.9-1.8-3.3 0.1-9.1 1.2-13 2.3-3.9 1.2-12.9 5-20 8.5-7.1 3.4-19.3 10.4-27 15.6-7.7 5.1-16.9 10.9-20.3 12.8l-6.4 3.6-14.8 40.5c6.7 9.7 9.6 15.7 10.9 19.5l2.3 7-10.2 27.5c2.3 9.7 3.8 15 4.9 18 1 3 2.9 7.8 4.1 10.5 1.2 2.8 1.8 5.3 1.3 5.6-0.4 0.3-2.9 2.2-5.5 4.2l-4.8 3.7c-1.6-4.3-2.5-6.6-3-8-0.5-1.4-1.8-6.8-2.9-12-1.1-5.2-2.7-13.3-3.6-18l-1.6-8.5 13.5-22c-2.6-7.7-5.1-12.7-7.2-16-2.2-3.3-5.3-7.3-7-9-1.7-1.7-3-3.2-2.7-3.5 0.2-0.3 2-7.7 3.9-16.5 2-8.8 3.6-16.2 3.6-16.5 0-0.3-5.8-0.4-13-0.2-7.1 0.1-13 0.3-13 0.5 0 0.1 1.6 7.4 3.6 16.2 1.9 8.8 3.7 16.2 3.9 16.5 0.3 0.3-1 1.8-2.7 3.5-1.7 1.7-4.8 5.7-7 9-2.1 3.3-4.6 8.3-5.5 11l-1.7 5 13.5 22c-2.5 13.2-4.1 21.3-5.2 26.5-1.1 5.2-2.4 10.6-2.9 12-0.5 1.4-1.4 3.7-2 5.3l-1 2.7c-7.4-5.7-9.9-7.6-10.3-7.9-0.5-0.3 0.1-2.8 1.3-5.6 1.2-2.7 3.1-7.5 4.1-10.5 1.1-3 2.6-8.3 3.4-11.7l1.5-6.3-10.2-27.5c3.6-10.8 6.5-16.8 8.9-20.2l4.3-6.3-14.5-39.8c-15.5-7.7-29-15.3-40-21.9-11-6.6-22.4-13.2-25.2-14.7-2.9-1.4-8.7-3.7-12.8-5.1-4.3-1.4-9.7-2.5-12.7-2.5-2.9 0.1-6.9 0.6-8.8 1.3z"/>
		<path id="Path 3" class="s0" d="m435.1 350.2c0 0.7-2.4 4.9-5.2 9.3-2.9 4.4-8.6 11.4-12.8 15.5-5 4.9-9.9 8.6-14.1 10.7-3.6 1.8-8.4 3.6-10.8 4-3.3 0.6-4.1 1.1-3.6 2.3 0.4 0.8 2.1 5.3 3.7 10 1.6 4.7 3.3 12.3 3.9 17 0.5 4.7 0.8 9.5 0.6 10.7-0.1 1.3 0 2.3 0.4 2.3 0.5 0 3.4-1.9 6.5-4.3 3.2-2.3 9.6-6.5 14.2-9.2 6.8-4.1 8.8-5.9 11.2-10 1.6-2.7 2.9-5.6 2.9-6.2 0-0.8-1.4-1.3-3.8-1.3-2 0-5.3-0.5-7.2-1.1-1.9-0.7-3.9-1.4-4.3-1.8-0.4-0.3 1.4-1.9 4-3.5 2.6-1.6 7.2-4.7 10.2-7 2.9-2.2 6.1-5.5 6.9-7.1 1.2-2.2 1.6-5.8 1.5-14 0-6-0.5-12.3-0.9-13.9-0.5-1.6-1.4-3.1-2-3.3-0.7-0.3-1.2 0.1-1.3 0.9zm-256.3-0.3c-0.2 0.4-1 4.1-1.7 8.2-0.8 4.7-1 9.8-0.6 13.9 0.4 3.6 1.3 7.6 2 9 0.7 1.4 3.7 4.4 6.6 6.6 3 2.3 7.6 5.4 10.2 7 2.6 1.6 4.4 3.2 4 3.5-0.4 0.4-2.4 1.1-4.3 1.8-1.9 0.6-5.2 1.1-7.2 1.1-2.4 0-3.8 0.5-3.8 1.3 0 0.6 1.3 3.5 2.9 6.2 2.4 4.1 4.4 5.9 11.2 10 4.6 2.7 11 6.9 14.2 9.2 3.1 2.4 6 4.3 6.5 4.3 0.4 0 0.5-1 0.4-2.3-0.2-1.2 0.1-6 0.6-10.7 0.6-4.7 2.3-12.3 3.9-17 1.6-4.7 3.3-9.2 3.7-10 0.5-1.2-0.3-1.7-3.6-2.3-2.4-0.4-7.2-2.2-10.8-4-4.2-2.1-9.1-5.8-14.1-10.7-4.2-4.1-9.9-11.1-12.8-15.5-2.8-4.4-5.2-8.6-5.1-9.2 0-0.7-0.4-1.3-1-1.3-0.5 0-1.1 0.4-1.2 0.9zm210.2-96.2c-1.9 0.2-8.4 1-14.5 1.8-6 0.8-16.7 2.9-23.7 4.5-11.1 2.6-12.8 3.3-12.8 5 0 1.1 1 3.9 2.1 6.3 1.2 2.3 2.2 4.3 2.3 4.5 0 0.1 4.8-1.3 10.6-3.2 5.8-1.8 14.3-3.9 19-4.6 5.6-0.9 13.5-1.1 23-0.7q14.6 0.6 22.5 2.7c4.4 1.1 9.1 2.8 10.5 3.8 1.7 1.2 3.3 4.3 5 9.5 1.4 4.2 2.7 7.7 3 7.7 0.3 0 1.8-2.8 3.4-6.2 2.5-5.5 2.8-7.1 2.3-12.8-0.3-3.6-1.1-8.4-1.9-10.7-1.2-4-1.5-4.2-6.8-5.2-3-0.6-10.4-1.5-16.5-2.1-6-0.5-13.9-0.9-17.5-0.8-3.6 0-8.1 0.3-10 0.5zm-191 0.3c-4.7 0.5-11.2 1.4-14.5 2-5.9 1.1-6 1.2-7.3 5.3-0.8 2.3-1.6 7.1-1.9 10.7-0.5 5.7-0.2 7.3 2.3 12.8 1.6 3.4 3.1 6.2 3.4 6.2 0.3 0 1.6-3.5 3-7.7 1.7-5.2 3.3-8.3 5-9.5 1.4-1 6.1-2.7 10.5-3.8q8-2.1 22.5-2.7c9.5-0.4 17.4-0.2 23 0.7 4.7 0.7 13.2 2.8 19 4.6 5.8 1.9 10.6 3.3 10.6 3.2 0.1-0.2 1.1-2.2 2.3-4.5 1.1-2.4 2.1-5.2 2.1-6.3 0-1.7-1.7-2.4-12.7-5-7.1-1.6-17.5-3.7-23.3-4.5-5.8-0.8-16.1-1.7-23-1.9-6.9-0.3-16.3-0.1-21 0.4zm178-93.3c-4.1 3-11.1 7.2-15.5 9.3-4.4 2-8.9 4.1-10 4.4q-2 0.7-0.8 1.4c0.6 0.4 2.6 3.2 4.5 6.2 1.8 3 3.9 7.8 4.7 10.5 0.7 2.8 1.5 5.6 1.7 6.3q0.4 1.2 1.7 0.2c0.6-0.5 5.9-2.8 11.7-5 5.8-2.2 14.2-4.8 18.6-5.8l8.2-1.7c-5.9-7.7-8.7-12.2-10.1-15-1.4-2.7-3.2-7.6-4.1-10.7-0.9-3.2-1.9-5.8-2.3-5.7-0.5 0-4.2 2.5-8.3 5.6zm-146.5 0.1c-1 3.1-2.8 8-4.2 10.7-1.4 2.8-4.2 7.3-6.3 10l-3.8 5c12.6 2.7 21 5.3 26.8 7.5 5.8 2.2 11.1 4.5 11.8 5q1.2 1 1.6-0.2c0.2-0.7 1-3.5 1.7-6.3 0.8-2.7 2.9-7.5 4.7-10.5 1.9-3 3.9-5.8 4.5-6.2 0.7-0.4-0.2-1.2-2.3-1.9-1.9-0.7-6.6-2.9-10.5-4.8-3.8-2-10.3-6-14.2-8.9-4-2.8-7.5-5.2-7.7-5.2-0.3 0-1.2 2.6-2.1 5.8z"/>
	</g>
</svg>